<?xml version="1.0" encoding="utf-8"?>
<!-- Generator: Adobe Illustrator 16.0.1, SVG Export Plug-In . SVG Version: 6.00 Build 0)  -->
<!DOCTYPE svg PUBLIC "-//W3C//DTD SVG 1.1//EN" "http://www.w3.org/Graphics/SVG/1.1/DTD/svg11.dtd">
<svg version="1.1" id="Layer_1" xmlns="http://www.w3.org/2000/svg" xmlns:xlink="http://www.w3.org/1999/xlink" x="0px" y="0px"
	 width="218px" height="259.921px" viewBox="0 0 218 259.921" enable-background="new 0 0 218 259.921" xml:space="preserve">
<circle fill="#FFFFFF" cx="108.775" cy="128.308" r="102.59"/>
<g>
	<path d="M96.853,73.063c-24.472,15.379-31.952,33.73-33.918,46.416c-2.161,13.944,1.701,24.239,1.866,24.669
		c0.773,2.015,2.677,3.37,4.834,3.439l28.027,0.896c0.549,0.017,1.081-0.048,1.584-0.186c2.21-0.603,3.866-2.591,3.944-5
		c0.095-2.959-2.227-5.434-5.187-5.529l-24.082-0.771c-0.715-3.38-1.445-9.083-0.393-15.877c2.362-15.245,12.129-28.36,29.029-38.98
		c2.507-1.575,3.262-4.884,1.687-7.39C102.669,72.244,99.362,71.487,96.853,73.063z"/>
	<g>
		<path d="M150.753,89.193c-0.831-0.128-1.676-0.193-2.513-0.193c-8.127,0-14.927,5.838-16.167,13.882
			c-0.793,5.146,0.923,10.102,4.221,13.647c0.393,0.603,0.95,1.11,1.636,1.528c2.185,1.786,4.848,3.042,7.832,3.503
			c0.832,0.128,1.678,0.193,2.514,0.193c8.126,0,14.925-5.837,16.165-13.881c0.667-4.323-0.39-8.646-2.975-12.175
			S155.076,89.86,150.753,89.193z M159.552,107.119c-0.117,0.755-0.314,1.482-0.572,2.179c-0.032-0.026-0.057-0.052-0.088-0.079
			c-8.633-7.176-17.218-1.909-20.919,1.115c-0.975-2.013-1.374-4.328-1.008-6.699c0.852-5.523,5.699-9.688,11.276-9.688
			c0.584,0,1.175,0.045,1.759,0.135c3.017,0.465,5.671,2.078,7.475,4.539C159.279,101.084,160.017,104.102,159.552,107.119z"/>
		<path d="M216.9,116.443c2.114-17.278,1.642-36.308-5.535-52.41c0,0-7.028-27.213-39.248-42.354
			C148.258-7.711,91.36-3.588,44.684,12.622c0,0-30.386,19.565-9.683,35.83C13.492,68.337,0,96.775,0,128.308
			c0,31.034,13.066,59.073,33.984,78.909c3.093,7.281,4.22,8.215,11.359,12.234c4.919,2.768,9.359,12.561,15.057,14.666
			c8.468,3.127,22.482,21.101,31.064,21.933c8.582,0.833,3.92,5.99,20.963,2.89c7.971-0.274,4.777-4.557,30.951-14.392
			c10.526-3.954,15.48-17.042,24.223-24.222c8.479-6.966,27.516-15.415,33.488-25.035c2.198-3.541,7.438-11.748,5.337-19.103
			c7.118-14.456,11.123-30.709,11.123-47.88C217.55,124.298,217.325,120.341,216.9,116.443z M32.378,82.807
			c0.291-0.022,0.582-0.033,0.868-0.033c5.938,0,10.937,4.645,11.381,10.574c0.057,0.768,0.035,1.522-0.056,2.259
			c-0.04-0.021-0.073-0.042-0.114-0.062c-10.02-5.038-17.191,2.015-20.12,5.799c-1.409-1.747-2.324-3.912-2.501-6.289
			C21.366,88.772,26.095,83.277,32.378,82.807z M101.847,185.022l-24.115,3.686c-0.152,0.023-0.301,0.034-0.449,0.034
			c-1.432,0-2.69-1.043-2.912-2.503c-0.247-1.611,0.86-3.114,2.468-3.36l24.117-3.688c1.609-0.246,3.115,0.859,3.362,2.47
			C104.565,183.272,103.459,184.776,101.847,185.022z M175.981,125.173l-0.803,14.625c-22.015,27.825-47.206,24.067-61.042,17.435
			c-7.431-3.562-57.078,15.334-68.231-14.844c-32.98,10.732-31.695,4.692-31.695,4.692c-1.204-6.076-1.841-12.351-1.841-18.773
			c0-10.622,1.73-20.845,4.918-30.409c0.951,4.066,3.425,7.541,6.761,9.82c0.525,0.523,1.2,0.907,1.986,1.169
			c2.179,1.076,4.617,1.689,7.181,1.689c0.411,0,0.823-0.016,1.239-0.046c9.003-0.675,15.78-8.549,15.105-17.553
			c-0.667-8.905-8.509-15.784-17.552-15.106c-2.354,0.176-4.549,0.854-6.504,1.906c7.711-13.18,18.456-24.379,31.277-32.622
			c18.43-10.416,58.89-24.138,110.184,13.166C166.965,60.322,183.709,65.077,175.981,125.173z"/>
	</g>
</g>
</svg>
